<svg width="87" height="87" viewBox="0 0 87 87" fill="none" xmlns="http://www.w3.org/2000/svg">
<circle cx="24.1667" cy="24.1667" r="23.1667" fill="#FEC7A0" stroke="#C10201" stroke-width="2"/>
<circle cx="24.1667" cy="62.8333" r="23.1667" fill="#FEC7A0" stroke="#C10201" stroke-width="2"/>
<circle cx="62.8333" cy="24.1667" r="23.1667" fill="#FEC7A0" stroke="#C10201" stroke-width="2"/>
<circle cx="62.35" cy="62.8333" r="23.1667" fill="#FEC7A0" stroke="#C10201" stroke-width="2"/>
<rect x="10.3917" y="10.15" width="65.7333" height="66.7" fill="#FEC7A0"/>
<mask id="path-6-inside-1_16_49" fill="white">
<path d="M75.4 43.7144L76.3667 43.0168V44.3459L75.4 43.7144Z"/>
</mask>
<path d="M75.4 43.7144L76.3667 43.0168V44.3459L75.4 43.7144Z" fill="#F1DEAE"/>
<path d="M75.4 43.7144L74.8148 42.9035L73.6344 43.7554L74.8531 44.5516L75.4 43.7144ZM76.3667 43.0168H77.3667V41.0619L75.7815 42.2059L76.3667 43.0168ZM76.3667 44.3459L75.8197 45.1831L77.3667 46.1938V44.3459H76.3667ZM75.4 43.7144L75.9852 44.5253L76.9519 43.8277L76.3667 43.0168L75.7815 42.2059L74.8148 42.9035L75.4 43.7144ZM76.3667 43.0168H75.3667V44.3459H76.3667H77.3667V43.0168H76.3667ZM76.3667 44.3459L76.9136 43.5088L75.947 42.8772L75.4 43.7144L74.8531 44.5516L75.8197 45.1831L76.3667 44.3459Z" fill="#C10201" mask="url(#path-6-inside-1_16_49)"/>
<mask id="path-8-inside-2_16_49" fill="white">
<path d="M43.5482 11.1167L42.6543 10.15H44.3459L43.5482 11.1167Z"/>
</mask>
<path d="M43.5482 11.1167L42.6543 10.15H44.3459L43.5482 11.1167Z" fill="#F1DEAE"/>
<path d="M43.5482 11.1167L42.814 11.7956L43.591 12.6359L44.3194 11.7532L43.5482 11.1167ZM42.6543 10.15V9.15003H40.3676L41.9201 10.829L42.6543 10.15ZM44.3459 10.15L45.1172 10.7865L46.4678 9.15003H44.3459V10.15ZM43.5482 11.1167L44.2824 10.4378L43.3885 9.4711L42.6543 10.15L41.9201 10.829L42.814 11.7956L43.5482 11.1167ZM42.6543 10.15V11.15H44.3459V10.15V9.15003H42.6543V10.15ZM44.3459 10.15L43.5747 9.51352L42.7769 10.4802L43.5482 11.1167L44.3194 11.7532L45.1172 10.7865L44.3459 10.15Z" fill="#C10201" mask="url(#path-8-inside-2_16_49)"/>
<mask id="path-10-inside-3_16_49" fill="white">
<path d="M11.3583 43.4694L10.3916 44.1671V42.8379L11.3583 43.4694Z"/>
</mask>
<path d="M11.3583 43.4694L10.3916 44.1671V42.8379L11.3583 43.4694Z" fill="#F1DEAE"/>
<path d="M11.3583 43.4694L11.9435 44.2803L13.1239 43.4284L11.9052 42.6323L11.3583 43.4694ZM10.3916 44.1671H9.39161V46.122L10.9768 44.9779L10.3916 44.1671ZM10.3916 42.8379L10.9386 42.0007L9.39161 40.9901V42.8379H10.3916ZM11.3583 43.4694L10.7731 42.6585L9.80641 43.3562L10.3916 44.1671L10.9768 44.9779L11.9435 44.2803L11.3583 43.4694ZM10.3916 44.1671H11.3916V42.8379H10.3916H9.39161V44.1671H10.3916ZM10.3916 42.8379L9.84467 43.6751L10.8113 44.3066L11.3583 43.4694L11.9052 42.6323L10.9386 42.0007L10.3916 42.8379Z" fill="#C10201" mask="url(#path-10-inside-3_16_49)"/>
<mask id="path-12-inside-4_16_49" fill="white">
<path d="M43.1648 75.8833L43.8624 76.85H42.6541L43.1648 75.8833Z"/>
</mask>
<path d="M43.1648 75.8833L43.8624 76.85H42.6541L43.1648 75.8833Z" fill="#F1DEAE"/>
<path d="M43.1648 75.8833L43.9757 75.2981L43.033 73.992L42.2806 75.4162L43.1648 75.8833ZM43.8624 76.85V77.85H45.8173L44.6733 76.2648L43.8624 76.85ZM42.6541 76.85L41.7699 76.3828L40.9947 77.85H42.6541V76.85ZM43.1648 75.8833L42.3539 76.4685L43.0515 77.4352L43.8624 76.85L44.6733 76.2648L43.9757 75.2981L43.1648 75.8833ZM43.8624 76.85V75.85H42.6541V76.85V77.85H43.8624V76.85ZM42.6541 76.85L43.5382 77.3171L44.049 76.3504L43.1648 75.8833L42.2806 75.4162L41.7699 76.3828L42.6541 76.85Z" fill="#C10201" mask="url(#path-12-inside-4_16_49)"/>
</svg>
