<svg width="97" height="100" viewBox="0 0 97 100" fill="none" xmlns="http://www.w3.org/2000/svg">
<g clip-path="url(#clip0_11_139)">
<path d="M96.6241 59.8811C96.0425 58.1201 94.5189 56.8936 92.5486 56.5992C91.6195 56.4606 90.5556 56.5197 89.2965 56.7792C87.1018 57.2318 85.4737 57.4042 84.2854 57.4375C88.7705 49.8674 92.4175 41.2349 94.517 33.1087C97.912 19.9689 96.0978 13.983 93.9779 11.2754C88.3674 4.10872 80.1819 0.258717 70.3068 0.140914C65.0389 0.0765197 60.4143 1.11629 58.0018 1.86402C55.7557 1.46781 53.3405 1.2466 50.8064 1.20569C46.0561 1.12993 41.8589 2.16516 38.2726 4.29281C36.2871 3.6216 33.1005 2.67538 29.4206 2.0716C20.7656 0.651141 13.7899 1.75796 8.68757 5.36137C2.50913 9.72425 -0.355025 17.3046 0.174686 27.8917C0.34292 31.253 2.22381 41.4803 5.18534 51.1796C6.88739 56.7545 8.70235 61.3841 10.5798 64.9409C13.2424 69.9845 16.0914 72.9546 19.2897 74.0212C21.0824 74.6182 24.3394 75.0364 27.7651 72.1841C28.1994 72.7098 28.7787 73.2322 29.5475 73.7174C30.5239 74.333 31.7179 74.836 32.9103 75.1341C37.2075 76.208 41.2326 75.9394 44.6666 74.4341C44.6878 75.0447 44.7041 75.628 44.7178 76.1318C44.7405 76.9489 44.7632 77.75 44.7932 78.4992C44.9966 83.5652 45.3414 87.5042 46.363 90.2602C46.4191 90.4117 46.4945 90.6428 46.574 90.8879C47.0837 92.4477 47.9358 95.0591 50.1039 97.1042C52.3489 99.2227 55.0646 99.8724 57.5517 99.8724C58.7991 99.8724 59.9892 99.7087 61.0331 99.4852C64.7539 98.6879 68.9799 97.4735 72.0369 93.122C74.9272 89.0083 76.3322 82.8125 76.5864 73.05C76.6193 72.7737 76.6501 72.5101 76.6789 72.2591L76.7395 71.7432L77.4204 71.803L77.5958 71.8148C81.3857 71.9875 86.0197 71.1841 88.8656 69.8625C91.1145 68.8193 98.3209 65.0159 96.6241 59.8811Z" fill="black"/>
<path d="M90.1441 60.8795C78.8754 63.2034 78.1005 59.3894 78.1005 59.3894C89.9982 41.7405 94.9721 19.3378 90.6802 13.8549C78.9705 -1.10156 58.7009 5.97193 58.3626 6.15526L58.2538 6.17496C56.0274 5.71284 53.536 5.43784 50.7356 5.392C45.637 5.30867 41.7691 6.72837 38.8341 8.95337C38.8341 8.95337 2.67509 -5.9383 4.35705 27.6822C4.71474 34.8344 14.6118 81.8007 26.4162 67.6147C30.7308 62.4272 34.8999 58.0412 34.8999 58.0412C36.9703 59.4162 39.4491 60.1178 42.0476 59.8659L42.2496 59.6947C42.1867 60.3386 42.2155 60.9685 42.3303 61.7144C39.2892 65.1109 40.183 65.7072 34.1038 66.9583C27.9523 68.2257 31.5659 70.4818 33.9254 71.0719C36.7857 71.7867 43.403 72.7996 47.8741 66.5424L47.696 67.2564C48.8872 68.2106 49.7239 73.4621 49.5837 78.2231C49.4435 82.9837 49.3499 86.2522 50.2884 88.8053C51.2278 91.3583 52.1633 97.1026 60.1552 95.3909C66.8326 93.9602 70.2932 90.253 70.7748 84.0689C71.1162 79.6727 71.8895 80.3227 71.938 76.392L72.5583 74.5314C73.2733 68.5719 72.672 66.6492 76.7857 67.5435L77.786 67.6314C80.8135 67.7689 84.7769 67.1443 87.103 66.0636C92.1114 63.7401 95.082 59.8602 90.1433 60.8795H90.1441Z" fill="#336791"/>
<path d="M40.9507 30.8807C39.9352 30.7394 39.0156 30.8701 38.5503 31.2223C38.2888 31.4204 38.2078 31.65 38.1858 31.8079C38.1274 32.2265 38.4207 32.6894 38.6011 32.928C39.1111 33.6038 39.856 34.0682 40.5933 34.1704C40.7002 34.1853 40.8065 34.1927 40.9124 34.1924C42.1419 34.1924 43.2601 33.2352 43.3586 32.5288C43.4817 31.6439 42.1969 31.0538 40.9507 30.8807ZM74.5915 30.9087C74.4945 30.2151 73.26 30.0174 72.0884 30.1803C70.9184 30.3432 69.7839 30.8712 69.8786 31.5663C69.9544 32.1068 70.9309 33.0295 72.0865 33.0295C72.1843 33.0295 72.2828 33.0227 72.3821 33.0091C73.1535 32.9023 73.7196 32.4125 73.9886 32.1303C74.3978 31.7 74.635 31.2204 74.5915 30.9087Z" fill="white"/>
<path d="M93.8937 60.6155C93.4641 59.3166 92.081 58.8988 89.7834 59.3731C82.9612 60.7806 80.518 59.8056 79.7158 59.2151C85.0186 51.1393 89.381 41.3772 91.7343 32.2693C92.8491 27.9549 93.4648 23.9481 93.5152 20.6821C93.5709 17.0977 92.9601 14.4636 91.7006 12.8545C86.6225 6.36775 79.1694 2.88821 70.1477 2.79275C63.9454 2.72306 58.7051 4.3098 57.6892 4.75601C55.5499 4.22419 53.2178 3.89768 50.6787 3.85601C46.0227 3.78063 41.998 4.89503 38.6659 7.16662C37.2185 6.62798 33.4779 5.34427 28.9034 4.60753C20.9948 3.3348 14.7103 4.29919 10.2256 7.47533C4.87426 11.2655 2.40379 18.0405 2.88235 27.6117C3.04338 30.8318 4.8788 40.7378 7.77516 50.2246C11.5877 62.7109 15.7322 69.7795 20.0926 71.2337C20.603 71.4037 21.1915 71.5227 21.8405 71.5227C23.4312 71.5227 25.3814 70.806 27.4105 68.3674C29.8853 65.3994 32.4454 62.5035 35.0875 59.6833C36.8017 60.603 38.6848 61.1166 40.6108 61.1681C40.6148 61.2186 40.6193 61.2689 40.6241 61.3189C40.2925 61.7141 39.9679 62.1151 39.6503 62.5215C38.3158 64.2151 38.038 64.5678 33.7424 65.4518C32.5204 65.7041 29.2751 66.3727 29.2273 68.6469C29.1758 71.1318 33.0637 72.1753 33.5067 72.2859C35.0504 72.6723 36.5376 72.8628 37.9558 72.8628C41.405 72.8628 44.4404 71.7295 46.8662 69.5367C46.7915 78.395 47.161 87.1238 48.2249 89.7833C49.0964 91.9606 51.2251 97.2814 57.9492 97.281C58.9358 97.281 60.0218 97.1662 61.2165 96.9102C68.2342 95.4064 71.2817 92.3056 72.4605 85.4696C73.0914 81.8162 74.1739 73.0924 74.6832 68.4128C75.7578 68.7481 77.1412 68.9015 78.6367 68.9011C81.7559 68.9011 85.3551 68.2386 87.6122 67.1912C90.1479 66.014 94.7235 63.1253 93.8937 60.6155ZM77.1817 28.9943C77.1586 30.3757 76.9684 31.6299 76.7668 32.939C76.5497 34.3469 76.3254 35.8026 76.2689 37.5696C76.2132 39.2893 76.4281 41.0772 76.6357 42.8064C77.0555 46.2988 77.4863 49.8943 75.8188 53.442C75.5422 52.9511 75.2954 52.444 75.0799 51.9234C74.8726 51.4212 74.4225 50.6143 73.7992 49.4977C71.3746 45.1507 65.6967 34.9712 68.6033 30.8174C69.4691 29.581 71.6663 28.3098 77.1817 28.9943ZM70.4963 5.5901C78.5799 5.76851 84.9743 8.79162 89.5015 14.575C92.9738 19.0109 89.1502 39.1954 78.0812 56.6087C77.9699 56.4672 77.858 56.3261 77.7455 56.1856L77.6053 56.0106C80.4657 51.2882 79.9064 46.6159 79.4085 42.4734C79.2039 40.7734 79.0107 39.1678 79.0599 37.6594C79.1107 36.0609 79.3221 34.6897 79.5267 33.364C79.778 31.7303 80.0337 30.0397 79.9632 28.0469C80.0159 27.8378 80.0371 27.5909 80.0095 27.2977C79.8295 25.3867 77.647 19.6674 73.1986 14.4909C70.7653 11.6594 67.2168 8.49086 62.3718 6.35374C64.4557 5.92192 67.3055 5.51927 70.4963 5.5901ZM25.2632 66.5825C23.0277 69.2696 21.484 68.7545 20.9763 68.5856C17.6684 67.4825 13.8301 60.4931 10.4461 49.4098C7.51789 39.8196 5.80675 30.1761 5.6711 27.4719C5.24369 18.9196 7.31744 12.9594 11.8351 9.75639C19.1874 4.54427 31.2753 7.66397 36.1325 9.24616C36.0628 9.3151 35.99 9.3795 35.9211 9.44957C27.9504 17.4965 28.1395 31.245 28.1592 32.0856C28.1584 32.4098 28.1857 32.8689 28.2228 33.5003C28.36 35.8128 28.6154 40.1166 27.9334 44.9905C27.2998 49.5196 28.6965 53.9526 31.7645 57.153C32.0792 57.4809 32.4102 57.7929 32.7561 58.0878C31.3905 59.5499 28.4225 62.7833 25.2632 66.5825ZM33.7806 55.2215C31.3079 52.642 30.1848 49.0541 30.699 45.3768C31.4189 40.2284 31.1533 35.7443 31.0105 33.3352C30.9904 32.9981 30.9726 32.7026 30.9623 32.4696C32.1267 31.4374 37.5227 28.5473 41.3709 29.4287C43.1267 29.8306 44.1968 31.0261 44.6416 33.0821C46.9438 43.7272 44.9462 48.164 43.3412 51.7295C43.0104 52.464 42.6978 53.1583 42.4311 53.8765L42.2242 54.4318C41.7005 55.8356 41.2133 57.1409 40.9113 58.3802C38.2824 58.3727 35.7252 57.2499 33.7806 55.2212M34.1842 69.5772C33.4165 69.3856 32.7261 69.0526 32.3211 68.7765C32.6595 68.6174 33.2615 68.4007 34.3058 68.1856C39.3593 67.1458 40.1398 66.4117 41.8441 64.2484C42.2348 63.7522 42.6777 63.1901 43.2912 62.5053L43.2919 62.5045C44.2055 61.4818 44.6234 61.6553 45.3812 61.9696C45.9954 62.2234 46.5937 62.9931 46.8362 63.8401C46.951 64.2401 47.0799 64.9992 46.6581 65.5901C43.0979 70.5734 37.91 70.5094 34.1842 69.5772ZM60.6314 94.1803C54.4492 95.5045 52.2603 92.3511 50.8178 88.7462C49.8868 86.4189 49.4291 75.9242 49.7538 64.3344C49.758 64.1803 49.736 64.0314 49.6936 63.8912C49.6557 63.6145 49.5979 63.3408 49.5208 63.0723C49.0381 61.3859 47.8615 59.9753 46.4501 59.3905C45.8893 59.1583 44.8602 58.7321 43.6235 59.0484C43.8872 57.9621 44.3445 56.7352 44.8405 55.4068L45.0485 54.8481C45.2827 54.2181 45.5767 53.5655 45.8875 52.8746C47.5671 49.1443 49.8675 44.0348 47.3709 32.492C46.4357 28.1685 43.3128 26.0571 38.5787 26.5477C35.7407 26.8412 33.1441 27.9859 31.849 28.6424C31.5705 28.7833 31.3158 28.9196 31.0779 29.0522C31.4394 24.6962 32.805 16.5553 37.9134 11.4045C41.1299 8.16207 45.4134 6.56056 50.6325 6.64692C60.916 6.8151 67.5105 12.0909 71.2321 16.4875C74.4392 20.2757 76.1757 24.092 76.8687 26.1503C71.6569 25.6204 68.1122 26.6488 66.3154 29.217C62.4062 34.8034 68.454 45.6458 71.3606 50.8568C71.8937 51.8117 72.3537 52.6371 72.4984 52.9878C73.4449 55.281 74.6703 56.8121 75.5649 57.9295C75.8392 58.2719 76.1052 58.6041 76.3076 58.8943C74.729 59.3492 71.8937 60.4003 72.1521 65.6545C71.9437 68.2909 70.4618 80.634 69.7089 84.995C68.715 90.7564 66.5943 92.9018 60.6314 94.1803ZM86.4365 64.6594C84.8223 65.4083 82.1211 65.97 79.5552 66.0909C76.7209 66.2234 75.2781 65.7734 74.9386 65.4965C74.7794 62.2223 75.9984 61.8803 77.2885 61.5181C77.4913 61.4613 77.689 61.4056 77.88 61.339C77.9985 61.4357 78.1288 61.5311 78.271 61.6253C80.549 63.1284 84.6121 63.2905 90.3483 62.1068L90.4112 62.0943C89.6375 62.8174 88.3136 63.7878 86.4365 64.6594Z" fill="white"/>
</g>
<defs>
<clipPath id="clip0_11_139">
<rect width="97" height="100" fill="white"/>
</clipPath>
</defs>
</svg>
