<svg width="115" height="115" viewBox="0 0 115 115" fill="none" xmlns="http://www.w3.org/2000/svg">
<path d="M57.5 9.58337C51.2075 9.58337 44.9766 10.8228 39.1631 13.2308C33.3495 15.6389 28.0673 19.1684 23.6178 23.6178C14.6317 32.604 9.58331 44.7918 9.58331 57.5C9.58331 78.6792 23.3354 96.648 42.3583 103.021C44.7542 103.404 45.5208 101.919 45.5208 100.625V92.5271C32.2479 95.4021 29.4208 86.1063 29.4208 86.1063C27.2166 80.548 24.1021 79.0625 24.1021 79.0625C19.7416 76.0917 24.4375 76.1875 24.4375 76.1875C29.2291 76.523 31.7687 81.123 31.7687 81.123C35.9375 88.4063 42.9812 86.25 45.7125 85.1C46.1437 81.9855 47.3896 79.8771 48.7312 78.6792C38.0937 77.4813 26.9291 73.3605 26.9291 55.1042C26.9291 49.7855 28.75 45.5209 31.8646 42.1188C31.3854 40.9209 29.7083 35.9375 32.3437 29.4688C32.3437 29.4688 36.3687 28.175 45.5208 34.3563C49.3062 33.3021 53.4271 32.775 57.5 32.775C61.5729 32.775 65.6937 33.3021 69.4791 34.3563C78.6312 28.175 82.6562 29.4688 82.6562 29.4688C85.2916 35.9375 83.6146 40.9209 83.1354 42.1188C86.25 45.5209 88.0708 49.7855 88.0708 55.1042C88.0708 73.4084 76.8583 77.4334 66.1729 78.6313C67.8979 80.1167 69.4791 83.0396 69.4791 87.4959V100.625C69.4791 101.919 70.2458 103.452 72.6896 103.021C91.7125 96.6 105.417 78.6792 105.417 57.5C105.417 51.2075 104.177 44.9766 101.769 39.1631C99.3612 33.3496 95.8317 28.0673 91.3822 23.6178C86.9327 19.1684 81.6504 15.6389 75.8369 13.2308C70.0234 10.8228 63.7925 9.58337 57.5 9.58337Z" fill="black"/>
</svg>
