<svg width="140" height="140" viewBox="0 0 140 140" fill="none" xmlns="http://www.w3.org/2000/svg">
<path d="M127.558 59.6167C127.208 59.3833 124.292 57.1083 117.992 57.1083C116.358 57.1083 114.725 57.2833 113.092 57.575C111.867 49.4083 105.042 45.2667 104.75 45.0917L103.058 44.1L102.008 45.675C100.608 47.775 99.5 50.1667 99.0333 52.6167C97.8667 57.2833 98.5667 61.7167 100.958 65.5083C98.1 67.1417 93.4333 67.55 92.4417 67.55H15.6167C13.6333 67.55 12 69.1833 12 71.225C12 77.9333 13.05 84.6417 15.3833 90.9417C18.0083 97.8833 21.975 103.017 27.05 106.167C32.7667 109.667 42.1583 111.65 52.8333 111.65C57.4417 111.65 62.225 111.242 66.95 110.367C73.4833 109.2 79.7833 106.925 85.5583 103.6C90.3411 100.865 94.6221 97.3338 98.2167 93.1583C104.342 86.3333 107.958 78.575 110.583 71.8667H111.692C118.342 71.8667 122.483 69.1833 124.758 66.9083C126.275 65.5083 127.383 63.8167 128.2 61.8333L128.667 60.4333L127.558 59.6167ZM22.7917 65.3917H33.0583C33.525 65.3917 33.9917 64.9833 33.9917 64.4583V55.2417C33.9917 54.775 33.5833 54.3083 33.0583 54.3083H22.7917C22.2667 54.3083 21.8583 54.7167 21.8583 55.2417V64.4583C21.9167 64.9833 22.2667 65.3917 22.7917 65.3917ZM36.9667 65.3917H47.2333C47.7 65.3917 48.1667 64.9833 48.1667 64.4583V55.2417C48.1667 54.775 47.7583 54.3083 47.2333 54.3083H36.9667C36.4417 54.3083 36.0333 54.7167 36.0333 55.2417V64.4583C36.0917 64.9833 36.4417 65.3917 36.9667 65.3917ZM51.375 65.3917H61.5833C62.1667 65.3917 62.575 64.9833 62.575 64.4583V55.2417C62.575 54.775 62.225 54.3083 61.5833 54.3083H51.375C50.9083 54.3083 50.5 54.7167 50.5 55.2417V64.4583C50.5 64.9833 50.85 65.3917 51.375 65.3917ZM65.6083 65.3917H75.9333C76.4 65.3917 76.8083 64.9833 76.8083 64.4583V55.2417C76.8083 54.775 76.4583 54.3083 75.9333 54.3083H65.6083C65.1417 54.3083 64.7333 54.7167 64.7333 55.2417V64.4583C64.7333 64.9833 65.1417 65.3917 65.6083 65.3917ZM36.9667 52.325H47.2333C47.7 52.325 48.1667 51.8 48.1667 51.275V42.1167C48.1667 41.5917 47.7583 41.1833 47.2333 41.1833H36.9667C36.4417 41.1833 36.0333 41.5333 36.0333 42.1167V51.275C36.0917 51.8 36.4417 52.325 36.9667 52.325ZM51.375 52.325H61.5833C62.1667 52.325 62.575 51.8 62.575 51.275V42.1167C62.575 41.5917 62.225 41.1833 61.5833 41.1833H51.375C50.9083 41.1833 50.5 41.5333 50.5 42.1167V51.275C50.5 51.8 50.85 52.325 51.375 52.325ZM65.6083 52.325H75.9333C76.4 52.325 76.8083 51.8 76.8083 51.275V42.1167C76.8083 41.5917 76.4 41.1833 75.9333 41.1833H65.6083C65.1417 41.1833 64.7333 41.5333 64.7333 42.1167V51.275C64.7333 51.8 65.1417 52.325 65.6083 52.325ZM65.6083 39.025H75.9333C76.4 39.025 76.8083 38.6167 76.8083 38.0917V28.9917C76.8083 28.4083 76.4 28 75.9333 28H65.6083C65.1417 28 64.7333 28.35 64.7333 28.9917V38.0917C64.7333 38.5583 65.1417 39.025 65.6083 39.025ZM79.9583 65.3917H90.225C90.75 65.3917 91.1583 64.9833 91.1583 64.4583V55.2417C91.1583 54.775 90.75 54.3083 90.225 54.3083H79.9583C79.4917 54.3083 79.0833 54.7167 79.0833 55.2417V64.4583C79.0833 64.9833 79.4917 65.3917 79.9583 65.3917Z" fill="#0288D1"/>
</svg>
