<svg width="97" height="97" viewBox="0 0 97 97" fill="none" xmlns="http://www.w3.org/2000/svg">
<path d="M36.0847 74.3566C36.0847 74.3566 32.4722 76.4588 38.659 77.1681C46.1553 78.0244 49.9861 77.9017 58.2447 76.3406C58.2447 76.3406 60.4204 77.7008 63.4531 78.88C44.933 86.8143 21.54 78.42 36.0847 74.3566ZM33.8204 64.0011C33.8204 64.0011 29.7676 67.0013 35.9597 67.6424C43.9675 68.4692 50.2899 68.5366 61.2358 66.4299C61.2358 66.4299 62.7461 67.9645 65.1249 68.8026C42.7376 75.3501 17.8025 69.3179 33.8204 64.0011Z" fill="#0074BD"/>
<path d="M52.8968 46.4319C57.4626 51.6873 51.6995 56.4123 51.6995 56.4123C51.6995 56.4123 63.2856 50.4324 57.9658 42.9406C52.9953 35.9574 49.185 32.4889 69.8142 20.5245C69.8142 20.5253 37.4321 28.6104 52.8968 46.4319Z" fill="#EA2D2E"/>
<path d="M77.3901 82.0173C77.3901 82.0173 80.0644 84.2225 74.4437 85.9268C63.757 89.1642 29.9556 90.1403 20.5678 86.0564C17.1948 84.5878 23.5225 82.5515 25.5133 82.1219C27.5889 81.6725 28.7741 81.7543 28.7741 81.7543C25.0207 79.1118 4.51429 86.9453 18.3595 89.1923C56.1145 95.3124 87.1818 86.4361 77.3901 82.0173ZM37.8239 53.2697C37.8239 53.2697 20.6322 57.3535 31.7364 58.8381C36.4258 59.4655 45.7696 59.3216 54.4791 58.591C61.595 57.9931 68.7359 56.7162 68.7359 56.7162C68.7359 56.7162 66.229 57.7915 64.4133 59.0298C46.9518 63.6229 13.2276 61.4836 22.9375 56.7882C31.1461 52.818 37.8239 53.2697 37.8239 53.2697ZM68.6646 70.5076C86.4134 61.2873 78.2062 52.4262 72.4779 53.6198C71.0775 53.9115 70.4493 54.1654 70.4493 54.1654C70.4493 54.1654 70.9707 53.3477 71.9649 52.9961C83.2965 49.0138 92.0098 64.7445 68.31 70.9752C68.31 70.9737 68.582 70.7274 68.6646 70.5076Z" fill="#0074BD"/>
<path d="M57.9658 1.20264C57.9658 1.20264 67.7931 11.036 48.6425 26.1521C33.2846 38.2816 45.1406 45.1959 48.6371 53.0992C39.6715 45.011 33.0952 37.8899 37.5064 31.2628C43.9842 21.537 61.9299 16.8196 57.9658 1.20264Z" fill="#EA2D2E"/>
<path d="M39.5684 95.5003C56.601 96.5893 82.7637 94.8941 83.3829 86.834C83.3829 86.834 82.1924 89.8895 69.305 92.3137C54.7656 95.0509 36.8297 94.7319 26.1953 92.9761C26.1953 92.9768 28.374 94.7804 39.5684 95.5003Z" fill="#0074BD"/>
</svg>
