<svg width="106" height="106" viewBox="0 0 106 106" fill="none" xmlns="http://www.w3.org/2000/svg">
<path d="M19.5504 90.1033L12.1072 6.625H93.8928L86.4397 90.0901L52.9503 99.375L19.5504 90.1033Z" fill="#E44F26"/>
<path d="M53 92.2796L80.0631 84.7768L86.4297 13.452H53V92.2796Z" fill="#F1662A"/>
<path d="M53 44.4107H39.4519L38.5178 33.9267H53V23.6877H27.3281L27.5733 26.4371L30.0874 54.6497H53V44.4107ZM53 71.0002L52.9536 71.0134L41.552 67.9361L40.8233 59.7708H30.5446L31.9789 75.8431L52.9536 81.6664L53 81.6532V71.0002Z" fill="#EBEBEB"/>
<path d="M52.9636 44.4107V54.6497H65.5709L64.3851 67.9295L52.9636 71.0101V81.6631L73.9549 75.8431L74.1072 74.1139L76.5121 47.1601L76.7639 44.4107H52.9636ZM52.9636 23.6877V33.9267H77.6947L77.9001 31.6278L78.3671 26.4371L78.6122 23.6877H52.9636Z" fill="white"/>
</svg>
