<svg width="97" height="97" viewBox="0 0 97 97" fill="none" xmlns="http://www.w3.org/2000/svg">
<g clip-path="url(#clip0_11_137)">
<path d="M95.7592 43.2701L76.6421 10.189C74.985 7.31944 70.915 4.95911 67.5887 4.95911H29.395C26.0808 4.95911 21.9947 7.31944 20.3417 10.189L1.23671 43.2701C-0.420374 46.1396 -0.420374 50.8401 1.23671 53.7137L20.3336 86.8109C21.9907 89.6805 26.0606 92.0409 29.3869 92.0409H67.6009C70.915 92.0409 74.9809 89.6805 76.6542 86.8109L95.7551 53.7097C97.4122 50.8401 97.4122 46.1396 95.7551 43.2701H95.7592ZM44.3613 23.2598C44.3613 21.0894 46.1315 19.3191 48.2979 19.3191C50.4642 19.3191 52.2385 21.0894 52.2385 23.2598V46.7863C52.1744 47.7868 51.7317 48.7252 51.0005 49.4111C50.2693 50.0969 49.3044 50.4786 48.3019 50.4786C47.2994 50.4786 46.3345 50.0969 45.6033 49.4111C44.8721 48.7252 44.4295 47.7868 44.3653 46.7863L44.3613 23.2598ZM48.2979 73.4977C41.2173 73.4881 34.4296 70.6705 29.4236 65.663C24.4176 60.6555 21.6021 53.8669 21.5946 46.7863C21.6048 42.6218 22.584 38.5167 24.4549 34.796C26.3258 31.0754 29.0369 27.8411 32.3737 25.3493C32.7433 25.074 33.1636 24.8743 33.6105 24.7619C34.0575 24.6494 34.5222 24.6263 34.9781 24.6939C35.434 24.7615 35.8721 24.9184 36.2671 25.1557C36.6622 25.3931 37.0065 25.7061 37.2803 26.0768C37.5554 26.4458 37.7551 26.8654 37.8679 27.3116C37.9806 27.7578 38.0043 28.2219 37.9374 28.6773C37.8706 29.1327 37.7146 29.5704 37.4784 29.9654C37.2422 30.3604 36.9304 30.705 36.5609 30.9794C32.512 34.147 29.8612 38.7714 29.1739 43.8661C28.4866 48.9607 29.8173 54.1222 32.8821 58.2495C35.9468 62.3769 40.5031 65.1432 45.5788 65.9585C50.6545 66.7738 55.8479 65.5734 60.051 62.6135C62.5183 60.7778 64.5222 58.3905 65.9025 55.6425C67.2829 52.8944 68.0015 49.8616 68.001 46.7863C67.9919 43.6995 67.2614 40.6575 65.8678 37.9032C64.4741 35.1489 62.4559 32.7585 59.9742 30.9228C59.2272 30.369 58.73 29.5418 58.5913 28.6222C58.4527 27.7026 58.684 26.7656 59.2346 26.0162C59.7884 25.2691 60.6156 24.7719 61.5352 24.6333C62.4548 24.4947 63.3918 24.726 64.1412 25.2766C67.5051 27.765 70.2394 31.0067 72.1253 34.7419C74.0111 38.4771 74.9961 42.602 75.0012 46.7863C74.9958 53.8679 72.1803 60.6579 67.1729 65.6653C62.1654 70.6728 55.3754 73.4883 48.2938 73.4936" fill="#72B545"/>
</g>
<defs>
<clipPath id="clip0_11_137">
<rect width="97" height="97" fill="white"/>
</clipPath>
</defs>
</svg>
