<svg width="97" height="97" viewBox="0 0 97 97" fill="none" xmlns="http://www.w3.org/2000/svg">
<g clip-path="url(#clip0_11_150)">
<path d="M34.4805 97.7578C43.4984 97.7578 50.7734 90.4828 50.7734 81.4648V65.1719H34.4805C25.4625 65.1719 18.1875 72.4469 18.1875 81.4648C18.1875 90.4828 25.4625 97.7578 34.4805 97.7578Z" fill="#0ACF83"/>
<path d="M18.1875 48.8789C18.1875 39.8609 25.4625 32.5859 34.4805 32.5859H50.7734V65.1719H34.4805C25.4625 65.1719 18.1875 57.8969 18.1875 48.8789Z" fill="#A259FF"/>
<path d="M18.1875 16.293C18.1875 7.275 25.4625 0 34.4805 0H50.7734V32.5859H34.4805C25.4625 32.5859 18.1875 25.3109 18.1875 16.293Z" fill="#F24E1E"/>
<path d="M50.7734 0H67.0664C76.0844 0 83.3594 7.275 83.3594 16.293C83.3594 25.3109 76.0844 32.5859 67.0664 32.5859H50.7734V0Z" fill="#FF7262"/>
<path d="M83.3594 48.8789C83.3594 57.8969 76.0844 65.1719 67.0664 65.1719C58.0484 65.1719 50.7734 57.8969 50.7734 48.8789C50.7734 39.8609 58.0484 32.5859 67.0664 32.5859C76.0844 32.5859 83.3594 39.8609 83.3594 48.8789Z" fill="#1ABCFE"/>
</g>
<defs>
<clipPath id="clip0_11_150">
<rect width="97" height="97" fill="white"/>
</clipPath>
</defs>
</svg>
