<svg width="97" height="97" viewBox="0 0 97 97" fill="none" xmlns="http://www.w3.org/2000/svg">
<path d="M48.356 0.777466L3.45032 16.5809L10.5457 75.4152L48.4038 96.2224L86.4566 75.134L93.5497 16.3013L48.356 0.777466Z" fill="#B3B3B3"/>
<path d="M89.0703 19.7016L48.2515 5.78137V91.2513L82.4599 72.3188L89.0703 19.7016Z" fill="#A6120D"/>
<path d="M8.48828 19.9524L14.5705 72.5704L48.2507 91.2512V5.77979L8.48828 19.9524Z" fill="#DD1B16"/>
<path d="M59.4875 51.2812L48.2514 56.5359H36.4083L30.8407 70.4599L20.4867 70.6524L48.2514 8.88464L59.4875 51.2812ZM58.4008 48.6357L48.3257 28.6893L40.061 48.2924H48.2507L58.4008 48.6357Z" fill="#F2F2F2"/>
<path d="M48.2507 8.88464L48.3249 28.6893L57.7029 48.3076H48.2711L48.2507 56.523L61.2919 56.5359L67.3862 70.6539L77.2938 70.8373L48.2507 8.88464Z" fill="#B3B3B3"/>
</svg>
