<svg width="104" height="104" viewBox="0 0 104 104" fill="none" xmlns="http://www.w3.org/2000/svg">
<path fill-rule="evenodd" clip-rule="evenodd" d="M52 6.5C60.9991 6.5 69.796 9.16853 77.2784 14.1681C84.7609 19.1677 90.5927 26.2739 94.0365 34.5879C97.4803 42.9019 98.3814 52.0505 96.6257 60.8766C94.8701 69.7027 90.5366 77.8101 84.1734 84.1734C77.8101 90.5366 69.7027 94.8701 60.8766 96.6257C52.0505 98.3814 42.9019 97.4803 34.5879 94.0365C26.2739 90.5927 19.1677 84.7609 14.1681 77.2784C9.16853 69.796 6.5 60.9991 6.5 52C6.5 39.9327 11.2937 28.3595 19.8266 19.8266C28.3595 11.2937 39.9327 6.5 52 6.5Z" fill="#CC6699"/>
<path d="M80.5415 25.974C78.481 17.8945 65.0813 15.249 52.3998 19.7405C44.4576 22.4088 37.1198 26.6177 30.8068 32.1262C23.8225 38.6587 22.7078 44.3462 23.166 46.722C24.791 55.107 36.2733 60.5865 40.9955 64.6522V64.675C39.6045 65.3607 29.4125 70.525 27.0205 75.79C24.505 81.354 27.4203 85.345 29.354 85.8812C32.2573 86.5802 35.3066 86.3527 38.074 85.2307C40.8415 84.1087 43.1882 82.1484 44.785 79.625C46.1056 77.5808 46.9318 75.2572 47.1981 72.8382C47.4644 70.4192 47.1634 67.9714 46.319 65.689C48.5931 65.1079 50.9581 64.9721 53.2838 65.2892C61.2658 66.222 62.8323 71.2042 62.5333 73.2907C62.3926 74.0334 62.0937 74.7371 61.6569 75.354C61.22 75.9709 60.6554 76.4865 60.0015 76.8657C59.4425 77.2135 59.2703 77.3305 59.319 77.5905C59.3873 77.9642 59.644 77.9512 60.1218 77.87C61.3213 77.4922 62.3782 76.7599 63.1533 75.7696C63.9284 74.7792 64.3853 73.5773 64.4638 72.3222C64.6555 67.4472 59.9723 61.9677 51.6783 62.1075C49.2692 62.0365 46.8651 62.366 44.564 63.0825L44.213 62.6925C39.0845 57.2227 29.6075 53.352 30.0073 45.9972C30.1535 43.3225 31.083 36.283 48.2073 27.742C62.2473 20.7447 73.4858 22.672 75.4293 26.9392C78.2048 33.0362 69.4233 44.3625 54.8438 45.9972C53.2323 46.3243 51.5679 46.2845 49.974 45.8805C48.3801 45.4765 46.8976 44.7189 45.6365 43.6637C44.8695 42.8187 44.7558 42.783 44.4698 42.939C44.005 43.1957 44.3008 43.9432 44.4698 44.3852C45.0282 45.3912 45.7818 46.2756 46.6864 46.9866C47.5911 47.6976 48.6285 48.2209 49.738 48.5257C55.4704 49.7695 61.4488 49.1782 66.8265 46.8357C75.6698 43.4265 82.5663 33.9202 80.5415 25.974ZM42.9585 67.1547C43.6009 69.3804 43.5681 71.7467 42.8643 73.9537C42.7884 74.1834 42.705 74.4109 42.614 74.6362C42.523 74.8615 42.4244 75.0782 42.3183 75.2862C41.7678 76.4032 41.0596 77.4354 40.2155 78.351C37.5733 81.2337 33.878 82.3257 32.2953 81.406C30.5858 80.4147 31.4405 76.349 34.5053 73.1087C36.861 70.781 39.5758 68.8475 42.5458 67.3822L42.9585 67.1547Z" fill="white"/>
</svg>
