<svg width="97" height="97" viewBox="0 0 97 97" fill="none" xmlns="http://www.w3.org/2000/svg">
<g clip-path="url(#clip0_11_129)">
<path d="M57.0807 0.303126C56.4002 0.303126 55.7197 0.453931 55.1149 0.680517C56.4002 1.51259 57.0807 2.64628 57.4589 3.93153C57.4589 4.08309 57.5346 4.23466 57.5346 4.38546C57.5346 4.53702 57.6104 4.68783 57.6104 4.83863C57.6862 7.03174 57.0049 7.33411 56.5518 8.61936C55.7955 10.282 56.0228 12.097 56.9299 13.533C57.0057 13.6846 57.0815 13.9119 57.2323 14.0627C56.2494 7.71226 61.5412 6.8044 62.5241 4.83863C62.5999 3.10021 61.1638 1.96652 60.0294 1.13445C58.8957 0.453931 57.9878 0.302368 57.0815 0.302368L57.0807 0.303126ZM65.0203 1.66264C64.9445 2.26738 65.0203 2.11657 64.9445 2.41894C64.9445 2.64552 64.9445 2.87211 64.8688 3.09945C64.793 3.32604 64.793 3.4776 64.7172 3.70419C64.6414 3.93077 64.5664 4.08234 64.4906 4.30892C64.4148 4.46048 64.339 4.61129 64.2633 4.83788C64.1882 4.91366 64.1124 5.06522 64.0374 5.141C63.9616 5.21678 63.9617 5.29181 63.8859 5.36759C63.7343 5.51915 63.6585 5.74498 63.5077 5.89654L63.0545 6.35047C62.903 6.50203 62.7514 6.65284 62.6006 6.72786C62.0717 7.10677 61.4669 7.40838 60.9372 7.78652C60.7857 7.93809 60.5591 8.01387 60.4083 8.16467C60.2567 8.31624 60.1051 8.39202 59.9543 8.54282L59.5012 8.99599C59.3496 9.14756 59.198 9.29912 59.1223 9.5257C58.9715 9.67727 58.8957 9.90385 58.7449 10.0547C58.6691 10.282 58.5933 10.4328 58.4425 10.6594C58.3667 10.8867 58.2909 11.0383 58.2152 11.2641C58.1394 11.4915 58.0644 11.7181 58.0644 11.8689C58.0644 11.9446 58.0644 12.0962 57.9886 12.172C57.9886 12.2478 57.9886 12.3986 57.9128 12.4744V13.5323C57.9128 13.7596 57.9128 13.9112 57.9886 14.137C57.9886 14.3643 58.0644 14.5159 58.1401 14.7425C58.2159 14.9691 58.2917 15.1199 58.3675 15.3472C58.4425 15.4988 58.5183 15.5738 58.5183 15.7254L52.7718 13.5323C51.8241 13.2451 50.866 12.9931 49.8997 12.7767C49.37 12.6252 48.841 12.5494 48.3113 12.3978C46.8112 12.0975 45.2973 11.8707 43.775 11.7181H43.6235C42.1116 11.5665 40.6756 11.4907 39.1637 11.4907C38.0293 11.4907 36.9706 11.5665 35.9127 11.6423C34.4001 11.7181 32.8891 11.9454 31.3765 12.172L30.242 12.3986C29.4865 12.5501 28.7302 12.7009 27.9739 12.9275C27.5957 13.0033 27.2184 13.1549 26.8402 13.2306C26.4621 13.3815 26.0839 13.5323 25.7815 13.6838C25.4792 13.8354 25.2526 13.9112 24.9502 14.062C24.8744 14.062 24.8744 14.062 24.7987 14.1378C24.5713 14.2886 24.3455 14.3643 24.1181 14.5151C24.0424 14.5151 23.9666 14.5909 23.9666 14.5909C23.665 14.7425 23.4376 14.894 23.211 14.9691C23.0595 15.0449 22.8329 15.1206 22.6821 15.1964C22.6063 15.2714 22.5305 15.2714 22.4547 15.3472C22.2282 15.4988 22.0016 15.5738 21.7742 15.7246C21.5476 15.8762 21.3211 15.952 21.1695 16.1035C21.0179 16.2543 20.7913 16.3301 20.6405 16.4809C20.6405 16.4809 20.5648 16.4809 20.5648 16.5567C20.4132 16.6325 20.2624 16.784 20.1116 16.9348L20.0358 17.0106C19.8842 17.0864 19.8085 17.2372 19.6577 17.313C19.5819 17.313 19.5819 17.3888 19.5061 17.3888C19.3553 17.4645 19.2795 17.6154 19.1287 17.6904C19.1287 17.7662 19.0529 17.7662 19.0529 17.7662L18.599 18.2201L18.5232 18.2959L18.07 18.749C18.07 18.749 18.07 18.8248 17.9943 18.8248L17.6161 19.203C17.5403 19.2788 17.4645 19.2788 17.4645 19.3545L17.0114 19.8077C17.0114 19.8835 16.9356 19.8835 16.9356 19.9593L16.3309 20.5632L16.2551 20.639C15.8777 21.093 15.4238 21.4711 14.9706 21.8493C14.5174 22.2274 14.0627 22.6048 13.5338 22.9829C13.0048 23.3611 12.5509 23.6635 12.0219 23.9658C11.493 24.2682 10.9633 24.4948 10.4343 24.7221C9.90461 24.9487 9.37566 25.1753 8.8467 25.3269C7.78804 25.5542 6.72937 26.0074 5.82227 26.0824C5.82227 25.705 5.59493 25.78 5.36834 25.78C5.14176 25.8558 4.91517 25.8558 4.76361 25.9316C4.53627 26.0074 4.38546 26.0832 4.15887 26.1589C3.9434 26.2288 3.73957 26.3304 3.55414 26.4605C3.40258 26.6121 3.17599 26.6879 3.02519 26.8394C2.87363 26.9903 2.64628 27.1411 2.49548 27.2926C2.34391 27.4442 2.11733 27.595 1.96652 27.7458C1.81496 27.8974 1.6634 28.0489 1.51259 28.2755C1.36103 28.5021 1.21023 28.6529 1.13445 28.8802C0.983641 29.0318 0.907859 29.2584 0.757055 29.485C0.681273 29.7123 0.529711 29.9381 0.45393 30.1655L0.227344 30.846C0.151563 31.0726 0.151562 31.2234 0.0757812 31.4507V31.5265C0 31.7539 0 32.0555 0 32.207C0.0757812 32.1313 0.0757812 32.2828 0.0757812 32.4336V32.736C0.0757812 32.8876 0.151562 33.0384 0.151562 33.1892C0.227344 33.3407 0.227344 33.4923 0.303125 33.6431C0.378148 33.7947 0.45393 33.9455 0.604734 34.097C0.680516 34.2486 0.832078 34.3994 0.907859 34.5502C1.05866 34.7018 1.20947 34.8533 1.36103 34.9283C1.51259 35.0799 1.6634 35.2315 1.8142 35.3065C2.41894 35.8354 2.5705 35.987 3.3268 36.4402C3.47836 36.516 3.55338 36.5917 3.70495 36.6675H3.78073V36.8191C3.78073 37.0449 3.85651 37.1965 3.93153 37.4231C4.00731 37.6504 4.08309 37.877 4.15887 38.0278L4.3847 38.4817C4.3847 38.5575 4.46048 38.5575 4.46048 38.6333C4.53627 38.8599 4.68783 39.0107 4.76361 39.1622C4.91441 39.3138 4.9902 39.5404 5.141 39.6912L5.59493 40.1451L6.0481 40.5983H6.12388C6.27545 40.7499 6.42625 40.8256 6.57781 40.9772C6.72938 41.1288 6.95596 41.2038 7.10677 41.2788C7.25833 41.3546 7.48491 41.5061 7.7115 41.5819C7.86306 41.6577 8.01462 41.7327 8.24045 41.7327C8.24045 41.7327 8.31623 41.7327 8.31623 41.8085C8.39202 41.8085 8.54358 41.8843 8.61936 41.8843C8.54358 43.2446 8.54358 44.5298 8.69514 44.9838C8.92097 45.5127 10.0554 43.9251 11.1141 42.1867C10.9625 43.9251 10.8867 45.9666 11.1141 46.5714C11.4164 47.1761 12.8525 45.2103 14.2135 43.093C31.9047 39.0107 48.084 51.2584 49.8231 68.5722C49.52 65.8501 46.1932 64.3383 44.6064 64.7164C43.8501 66.5306 42.5648 68.9503 40.524 70.3864C40.6756 68.7227 40.5998 67.0596 40.2967 65.3969C39.7677 67.6651 38.7091 69.8574 37.1972 71.6716C34.8533 71.8232 32.4344 70.6888 31.2241 68.9503C31.1484 68.8745 31.0726 68.723 30.9976 68.6472C30.9218 68.4964 30.846 68.2698 30.7702 68.1182C30.6944 67.9667 30.6194 67.7401 30.6194 67.5893V66.6822C30.6194 66.5306 30.6952 66.3033 30.771 66.1525C30.8468 66.0017 30.8468 65.7743 30.9225 65.6235C30.9976 65.472 31.0733 65.2454 31.2241 65.0946C31.6781 63.8844 31.6781 62.9015 30.846 62.3725L30.3928 62.1452C30.317 62.1452 30.1655 62.0701 30.0897 62.0701C30.0139 62.0701 29.9389 61.9944 29.8631 61.9944C29.7123 61.9186 29.4857 61.9186 29.3342 61.8428C29.1826 61.767 28.956 61.767 28.8052 61.767C28.6537 61.767 28.4263 61.692 28.2755 61.692H27.8981C27.6708 61.692 27.5192 61.692 27.3684 61.7678C27.2168 61.7678 26.9902 61.8436 26.8394 61.8436C26.6879 61.9193 26.4613 61.9193 26.3097 61.9951C26.1589 62.0701 26.0074 62.1459 25.7808 62.221L25.3269 62.4483C19.5053 66.2283 22.9837 75.1492 26.9152 77.7197C25.4026 78.0229 23.8908 78.3245 23.4369 78.6276L23.3611 78.7034C24.4198 79.3831 25.5542 79.9128 26.7637 80.366C28.3513 80.8957 30.0905 81.3489 30.846 81.5762C32.8875 82.0294 35.0049 82.181 37.1214 82.0294C48.1597 81.2731 57.2323 72.8061 58.8949 61.7678C58.9707 61.9951 58.9707 62.221 59.0465 62.4483C59.1223 62.9015 59.198 63.3554 59.2738 63.8844C59.3496 64.1117 59.3496 64.3383 59.3496 64.5649V64.6406C59.3496 64.868 59.4246 65.0946 59.4246 65.3212C59.4246 65.6235 59.5004 65.8501 59.5004 66.1525V69.3277C59.5004 69.5551 59.4246 69.7066 59.4246 69.9332V70.1598C59.4246 70.3871 59.3488 70.6137 59.3488 70.9161C59.2731 71.1427 59.2731 71.3693 59.1973 71.5966V71.6724C59.1215 71.899 59.1215 72.1256 59.0465 72.3521V72.4279C58.9707 72.6553 58.9707 72.8819 58.8949 73.1084V73.1842L58.6683 73.8647V73.9405C58.5925 74.1671 58.5168 74.4695 58.4417 74.6961C58.366 74.9234 58.2902 75.15 58.1386 75.4524C58.0636 75.6789 57.9878 75.9813 57.837 76.2079C57.7612 76.4352 57.6097 76.6618 57.5339 76.9642C57.4589 77.1915 57.3073 77.4181 57.2323 77.6447C57.2323 77.7205 57.1565 77.7963 57.1565 77.7963C57.1565 77.7963 57.1565 77.8721 57.0807 77.8721C55.4931 81.1223 53.0742 83.9952 50.0497 86.2633C49.8224 86.4149 49.6716 86.5664 49.445 86.7172C49.3692 86.793 49.2934 86.793 49.2934 86.8688C49.1419 87.0196 48.9153 87.0954 48.7645 87.2462L48.8403 87.3978C49.2176 87.322 49.5208 87.322 49.8982 87.2462C50.5787 87.1704 51.1834 87.0189 51.8639 86.868C52.0155 86.868 52.2428 86.7923 52.3936 86.7165C52.5452 86.7165 52.6202 86.6407 52.771 86.6407C52.9218 86.6407 53.1499 86.5657 53.3007 86.5657C53.4523 86.4899 53.6031 86.4899 53.7539 86.4141C56.2494 85.8101 58.6683 84.9781 61.0122 83.9952C57.0049 89.4385 51.7131 93.824 45.5135 96.6961C48.3863 96.4695 51.2592 96.0164 54.0563 95.1843C64.1005 92.2348 72.5765 85.4433 77.6447 76.2837C76.5868 82.0294 74.3179 87.5486 70.9161 92.3872C73.3358 90.7996 75.5281 88.9088 77.5697 86.868C83.1639 81.0465 86.868 73.5616 88.0783 65.6235C88.9103 69.5551 89.2127 73.6374 88.8346 77.6447C106.904 52.4687 90.3464 26.3855 83.3912 19.5053C83.3912 19.4296 83.3154 19.4296 83.3154 19.3538C83.3154 19.6569 83.3154 19.9585 83.2396 20.2616C83.1639 20.8664 83.0881 21.3953 83.0123 21.9243C82.8615 22.454 82.7107 23.0587 82.5591 23.5877C82.4076 24.1174 82.181 24.6463 81.9544 25.1753C81.7278 25.7042 81.5005 26.234 81.1981 26.6879C80.8957 27.1418 80.5934 27.6708 80.291 28.1239C79.9886 28.5771 79.6105 29.031 79.2323 29.485C78.8549 29.9389 78.4768 30.3163 78.0229 30.7702C77.7955 30.9976 77.5697 31.2242 77.2673 31.375C77.04 31.5265 76.8884 31.6781 76.6618 31.9039C76.2087 32.2828 75.7547 32.5844 75.2258 32.8868C74.7718 33.1899 74.2429 33.4923 73.7139 33.7189L72.1256 34.3994C71.5966 34.626 71.0677 34.7775 70.5379 34.9283C70.009 35.0799 69.4043 35.2315 68.8745 35.3065C68.2698 35.3823 67.7409 35.458 67.2119 35.5338C66.833 35.5338 66.3798 35.6089 66.0017 35.6089C65.3969 35.6089 64.868 35.5331 64.339 35.5331C63.7335 35.4573 63.2046 35.3815 62.6756 35.3057C62.1022 35.2357 61.5419 35.0831 61.0122 34.8526C61.5412 34.7768 62.1459 34.7768 62.6756 34.626C63.2804 34.5502 63.8093 34.3986 64.339 34.2478C64.868 34.0963 65.4727 33.9455 65.9267 33.7189L67.5143 33.0384C68.0432 32.811 68.4972 32.5094 69.0261 32.207C69.48 31.9039 70.009 31.5265 70.4629 31.2241C70.9161 30.8452 71.37 30.4679 71.7482 30.0897C72.2013 29.7116 72.5795 29.2584 72.9576 28.8802C73.3358 28.4263 73.7139 27.9731 74.0163 27.5192C74.0921 27.4434 74.0921 27.3676 74.1679 27.2919C74.3937 26.9145 74.6961 26.4605 74.9234 26.0831C75.2047 25.5942 75.4569 25.0891 75.6789 24.5706C75.9063 24.0416 76.1336 23.5119 76.2844 22.9829L76.7376 21.3953C76.8134 20.7906 76.965 20.2616 76.965 19.7319C77.0407 19.1272 77.0407 18.5982 77.0407 18.0685C77.0407 17.6911 77.0407 17.2372 76.965 16.8591C76.8892 16.2543 76.8134 15.7254 76.7376 15.1957C76.6618 14.5909 76.5103 14.062 76.3595 13.5323C76.2079 13.0033 75.9813 12.4744 75.8305 11.9446C75.6032 11.4157 75.3766 10.8867 75.15 10.4328C74.8476 9.90385 74.621 9.44992 74.3187 8.92097C74.0155 8.46704 73.6382 8.01311 73.3358 7.55994C72.9576 7.10601 72.5795 6.72786 72.2013 6.27469C71.9748 6.04734 71.7482 5.82076 71.5208 5.66995C70.3871 4.76285 69.2527 4.00656 68.0432 3.25026C67.8917 3.17448 67.7409 3.0987 67.5143 3.02292C66.5314 2.19235 65.7759 1.96501 65.0203 1.66264Z" fill="#DF234F"/>
</g>
<defs>
<clipPath id="clip0_11_129">
<rect width="97" height="97" fill="white"/>
</clipPath>
</defs>
</svg>
