<svg width="97" height="97" viewBox="0 0 97 97" fill="none" xmlns="http://www.w3.org/2000/svg">
<path d="M1.06702 1.06702H95.933V95.9338H1.06702V1.06702Z" fill="#F0DB4F"/>
<path d="M88.1692 73.3077C87.4743 68.9798 84.6522 65.3446 76.2928 61.9549C73.3888 60.6204 70.1515 59.6648 69.1868 57.4641C68.8442 56.1834 68.7988 55.462 69.0155 54.6867C69.6377 52.1708 72.6409 51.3865 75.0212 52.1079C76.5542 52.6217 78.0054 53.8031 78.8807 55.6878C82.9744 53.037 82.9661 53.0544 85.8245 51.2326C84.778 49.6101 84.2195 48.8614 83.5344 48.1673C81.0723 45.4172 77.7175 44.0008 72.3521 44.1092L69.5573 44.4707C66.8792 45.1474 64.3269 46.5531 62.8302 48.4378C58.3394 53.5333 59.6201 62.4513 65.0847 66.1214C70.4682 70.162 78.3768 71.0812 79.3869 74.8597C80.3698 79.4854 75.9874 80.9828 71.6315 80.4508C68.4214 79.7832 66.636 78.1516 64.7058 75.1848C61.1532 77.2407 61.1532 77.2407 57.5005 79.3414C58.3667 81.2352 59.2769 82.0923 60.7288 83.7329C67.6007 90.7033 84.7969 90.3607 87.8812 79.8105C88.0063 79.4482 88.8368 77.0323 88.1692 73.3077ZM52.6392 44.6677H43.7659L43.7296 67.6082C43.7296 72.487 43.9819 76.9596 43.1885 78.3305C41.8904 81.0268 38.5264 80.6926 36.9934 80.1697C35.433 79.4028 34.6396 78.3123 33.7204 76.7709C33.468 76.3283 33.2786 75.9858 33.2149 75.9593L26.0005 80.3773C27.2002 82.8395 28.9674 84.9765 31.231 86.3648C34.6123 88.3942 39.1569 89.0164 43.9099 87.9251C47.0033 87.0241 49.6723 85.1576 51.0697 82.3166C53.0901 78.5919 52.6566 74.0837 52.6384 69.0973C52.6839 60.9622 52.6392 52.8286 52.6392 44.6677Z" fill="#323330"/>
</svg>
