<svg width="97" height="97" viewBox="0 0 97 97" fill="none" xmlns="http://www.w3.org/2000/svg">
<path d="M67.2104 66.7709C60.3901 80.7146 48.4469 90.0963 32.6466 93.1806C30.224 93.7744 27.7369 94.0646 25.2427 94.0445C16.149 94.0445 7.81304 90.2555 3.76632 84.049C-1.6672 75.7813 -3.51626 58.2531 14.3984 45.2869C14.7622 47.2648 15.5048 49.9777 15.9974 51.5843C12.4807 54.197 9.60206 57.5731 7.57812 61.4586C4.24374 68.0061 4.61507 74.546 8.56327 80.5934C11.2914 84.6704 15.6109 87.1484 21.1657 87.9063C28.1037 88.7844 35.1423 87.4589 41.2856 84.1172C50.9174 79.055 57.3361 73.0077 61.5344 64.7399C60.3472 63.5131 59.6446 61.8979 59.5565 60.1931C59.493 58.3636 60.158 56.5837 61.4054 55.2439C62.6528 53.9042 64.3807 53.114 66.2101 53.0469H66.4677C68.247 53.038 69.9617 53.7134 71.2569 54.9334C72.5521 56.1535 73.3287 57.8247 73.4261 59.6014C73.5234 61.3781 72.9341 63.1242 71.7799 64.4784C70.6258 65.8327 68.9952 66.6914 67.2255 66.877L67.2104 66.7709ZM88.9369 51.4631C98.1898 61.9512 98.4398 74.2959 94.863 81.4573C91.5286 87.9972 82.738 94.5447 70.9161 94.5447C65.3975 94.4316 59.9687 93.1261 55.002 90.7177C56.7374 89.4825 59.2003 87.5046 60.5568 86.2694C64.3864 87.9293 68.5082 88.8104 72.6818 88.8611C80.3357 88.8611 86.133 85.2842 89.5886 78.7443C91.809 74.4248 91.9378 69.3626 89.8387 64.1792C87.2634 57.657 82.6798 52.1234 76.7512 48.3788C68.9736 43.1358 59.8046 40.3408 50.4248 40.3535H48.2044C47.6867 41.5496 46.8444 42.5767 45.7729 43.3187C44.7015 44.0607 43.4437 44.4878 42.1419 44.5518H41.907C40.1066 44.5297 38.3857 43.8065 37.1099 42.536C35.834 41.2654 35.1038 39.5476 35.0742 37.7472C35.0446 35.9469 35.718 34.2059 36.9514 32.8941C38.1847 31.5823 39.8809 30.803 41.6797 30.7217H41.9298C43.1832 30.7227 44.4122 31.069 45.4817 31.7227C46.5512 32.3765 47.4198 33.3123 47.9923 34.4274H49.9702C65.7327 34.4274 79.5703 40.4748 88.9369 51.4631ZM26.2279 68.8927C26.0975 67.6343 26.4024 66.3692 27.0918 65.3083C20.1805 53.3349 16.4824 38.1559 22.1584 22.3555C26.2279 10.4806 36.4735 2.45532 47.583 2.45532C59.4352 2.45532 71.78 12.8298 73.2577 32.8209C71.4087 32.207 68.7109 31.3052 67.0891 30.9718C66.6875 24.4319 61.163 8.13892 48.0756 8.38142C43.3848 8.51024 36.4735 10.7306 32.9194 15.2927C28.5235 20.7387 25.966 27.4375 25.6141 34.4274C24.7805 44.0121 27.0292 53.6125 32.0327 61.8299C32.3089 61.729 32.6033 61.6877 32.8966 61.7087H33.1391C34.9721 61.6755 36.7432 62.3719 38.0627 63.6445C39.3823 64.9172 40.1423 66.6619 40.1754 68.4949C40.2086 70.3279 39.5122 72.0989 38.2396 73.4185C36.9669 74.7381 35.2222 75.498 33.3892 75.5312H33.1391C31.3509 75.5248 29.6342 74.8286 28.3466 73.5877C27.0591 72.3467 26.3001 70.6568 26.2279 68.87V68.8927Z" fill="#764ABC"/>
</svg>
