<svg width="97" height="97" viewBox="0 0 97 97" fill="none" xmlns="http://www.w3.org/2000/svg">
<path d="M17.1796 35.6172H92.7108V91.4452H17.1796V35.6172Z" fill="white"/>
<path d="M1.13672 48.4318V95.795H95.8633V1.06848H1.13672V48.4318ZM77.4712 44.6427C79.74 45.1692 81.802 46.3558 83.3973 48.0529C84.2753 48.9672 85.0388 49.9851 85.6707 51.0841C85.6707 51.2054 81.5785 53.9714 79.0853 55.5173C78.9944 55.5779 78.6306 55.1839 78.229 54.5852C77.7738 53.7999 77.1272 53.1426 76.3493 52.6748C75.5714 52.207 74.6877 51.944 73.7806 51.9101C70.9085 51.7131 69.0595 53.2211 69.0746 55.6992C69.0516 56.3161 69.1928 56.928 69.4838 57.4725C70.1128 58.7835 71.2874 59.564 74.9704 61.1554C81.7528 64.073 84.6552 65.9978 86.4588 68.7336C88.4746 71.7648 88.9217 76.6603 87.5577 80.2826C86.042 84.2232 82.3288 86.8983 77.0771 87.785C74.6785 88.0599 72.255 88.0344 69.8627 87.7092C66.1962 87.1048 62.8187 85.3444 60.2234 82.6849C59.3519 81.7225 57.6544 79.2141 57.7605 79.0322C58.0366 78.8261 58.3279 78.6411 58.632 78.479L62.1406 76.539L64.8612 74.9628L65.4295 75.8039C66.389 77.1758 67.6097 78.3449 69.0216 79.2444C72.0528 80.8358 76.1905 80.6161 78.2366 78.7746C78.9235 78.0998 79.3521 77.2054 79.4477 76.2472C79.5432 75.289 79.2997 74.3277 78.7595 73.5305C78.0016 72.4771 76.486 71.5905 72.2498 69.7414C67.362 67.6347 65.2552 66.3313 63.3304 64.2549C62.1292 62.8844 61.242 61.2679 60.7311 59.5186C60.3503 57.5198 60.294 55.4727 60.5644 53.4561C61.5723 48.7349 65.1112 45.4384 70.2795 44.4608C72.673 44.1651 75.0974 44.2316 77.4712 44.6579V44.6427ZM55.237 48.6136V52.4936H42.9377V87.5273H34.2152V52.4861H21.8856V48.697C21.847 47.3903 21.8773 46.0826 21.9766 44.7791C22.0372 44.7109 29.5547 44.7109 38.6484 44.7109H55.1915L55.237 48.6136Z" fill="#007ACC"/>
</svg>
