<svg width="102" height="102" viewBox="0 0 102 102" fill="none" xmlns="http://www.w3.org/2000/svg">
<g clip-path="url(#clip0_11_127)">
<path d="M51.0032 20.4016C37.4029 20.4016 28.9058 27.199 25.5032 40.7992C30.6016 34.0011 36.5534 31.4519 43.3516 33.1516C47.2332 34.119 50.0071 36.9336 53.079 40.0525C58.0786 45.1263 63.8655 51 76.5032 51C90.1026 51 98.6005 44.2019 102.003 30.5984C96.9032 37.4 90.9534 39.9506 84.154 38.25C80.2732 37.2818 77.5025 34.4681 74.4265 31.3491C69.4301 26.2754 63.6448 20.4016 51.0032 20.4016ZM25.5032 51C11.9037 51 3.40583 57.7982 0.00317383 71.4016C5.10264 64.6 11.0521 62.0495 17.8516 63.75C21.7332 64.7182 24.5071 67.532 27.579 70.651C32.5786 75.7247 38.3655 81.5984 51.0032 81.5984C64.6026 81.5984 73.1005 74.8011 76.5032 61.2008C71.4032 67.9992 65.4534 70.5484 58.654 68.8484C54.7732 67.881 52.0025 65.0665 48.9265 61.9475C43.9301 56.8738 38.1448 51 25.5032 51Z" fill="#38BDF8"/>
</g>
<defs>
<clipPath id="clip0_11_127">
<rect width="102" height="102" fill="white"/>
</clipPath>
</defs>
</svg>
