<svg width="95" height="95" viewBox="0 0 95 95" fill="none" xmlns="http://www.w3.org/2000/svg">
<g clip-path="url(#clip0_15_20)">
<path d="M72.7344 0H22.2656C9.96866 0 0 9.96866 0 22.2656V72.7344C0 85.0313 9.96866 95 22.2656 95H72.7344C85.0313 95 95 85.0313 95 72.7344V22.2656C95 9.96866 85.0313 0 72.7344 0Z" fill="black"/>
<path d="M20.5352 57.107C20.1044 57.1074 19.6866 56.9598 19.3516 56.6889C19.0167 56.418 18.785 56.0403 18.6953 55.6189C18.6057 55.1976 18.6634 54.7583 18.8587 54.3744C19.0541 53.9905 19.3752 53.6852 19.7685 53.5096L28.0139 49.8388C28.4693 49.6361 28.9866 49.6226 29.4521 49.801C29.9176 49.9795 30.2932 50.3354 30.4965 50.7906C30.597 51.0161 30.6521 51.2593 30.6586 51.5061C30.6652 51.7529 30.623 51.9986 30.5346 52.2292C30.4462 52.4597 30.3132 52.6706 30.1433 52.8497C29.9734 53.0288 29.7698 53.1728 29.5443 53.2732L21.2993 56.9441C21.0588 57.0517 20.7983 57.1074 20.5352 57.107ZM16.7252 67.0371C16.2943 67.0376 15.8764 66.89 15.5414 66.6191C15.2064 66.3482 14.9746 65.9704 14.8849 65.549C14.7951 65.1277 14.8526 64.6883 15.048 64.3043C15.2433 63.9203 15.5646 63.6151 15.9581 63.4397L24.2016 59.7688C24.4271 59.6683 24.6702 59.6132 24.917 59.6067C25.1638 59.6001 25.4095 59.6422 25.6401 59.7306C25.8706 59.819 26.0815 59.9519 26.2606 60.1218C26.4398 60.2917 26.5837 60.4952 26.6842 60.7207C26.7847 60.9462 26.8399 61.1893 26.8464 61.4361C26.853 61.6829 26.8109 61.9286 26.7225 62.1591C26.6341 62.3897 26.5012 62.6005 26.3313 62.7797C26.1614 62.9589 25.9579 63.1028 25.7324 63.2033L17.4889 66.8742C17.2484 66.9818 16.9883 67.0375 16.7252 67.0371ZM69.6591 35.2351C69.2279 35.2359 68.8095 35.0883 68.4742 34.8172C68.1389 34.5461 67.907 34.1679 67.8175 33.7461C67.7279 33.3243 67.7862 32.8845 67.9824 32.5005C68.1787 32.1166 68.5011 31.8118 68.8954 31.6373L77.1418 27.9665C77.5974 27.7645 78.1145 27.7514 78.5797 27.9302C79.0448 28.109 79.42 28.465 79.623 28.9202C79.8252 29.3756 79.8384 29.8927 79.6597 30.3579C79.4809 30.823 79.1248 31.1982 78.6696 31.401L70.4232 35.0718C70.183 35.1799 69.9225 35.2355 69.6591 35.2351ZM65.8491 45.1648C65.418 45.1656 64.9998 45.0179 64.6647 44.7468C64.3296 44.4756 64.098 44.0974 64.0088 43.6756C63.919 43.2541 63.977 42.8145 64.1729 42.4306C64.3689 42.0467 64.6909 41.742 65.085 41.5674L73.3289 37.8966C73.5542 37.7958 73.7973 37.7406 74.0441 37.7343C74.2909 37.7279 74.5366 37.7704 74.7668 37.8595C74.9972 37.9479 75.2079 38.081 75.3868 38.2509C75.5657 38.4209 75.7094 38.6244 75.8096 38.8499C75.9102 39.0752 75.9651 39.3182 75.9714 39.565C75.9775 39.8118 75.9353 40.0574 75.8471 40.2879C75.7586 40.5183 75.6255 40.729 75.4555 40.9079C75.2855 41.0869 75.0819 41.2305 74.8563 41.3307L66.6128 45.0015C66.3727 45.1095 66.1124 45.1652 65.8491 45.1648Z" fill="white"/>
<path d="M47.1686 76.4924C40.439 76.4847 33.9237 74.1251 28.7497 69.822C28.5593 69.6647 28.4018 69.4716 28.286 69.2535C28.1703 69.0354 28.0986 68.7966 28.0752 68.5508C28.0517 68.305 28.0769 68.057 28.1493 67.8209C28.2216 67.5848 28.3398 67.3653 28.497 67.1749C28.6542 66.9845 28.8474 66.827 29.0655 66.7112C29.2836 66.5955 29.5224 66.5238 29.7682 66.5004C30.014 66.4769 30.262 66.5021 30.4981 66.5745C30.7341 66.6468 30.9536 66.765 31.144 66.9222C34.7602 69.9142 39.1401 71.8367 43.7902 72.4731C47.2678 72.9496 50.8066 72.6946 54.18 71.7243C57.5533 70.7541 60.6869 69.09 63.3799 66.8387C66.0729 64.5874 68.2661 61.7984 69.8189 58.6505C71.3717 55.5025 72.25 52.0649 72.3974 48.5579C72.4018 48.3094 72.4566 48.0643 72.5585 47.8376C72.6604 47.6109 72.8073 47.4072 72.9903 47.239C73.1733 47.0707 73.3885 46.9414 73.6229 46.8588C73.8574 46.7762 74.1062 46.7421 74.3542 46.7585C74.6008 46.7689 74.843 46.8278 75.0669 46.9318C75.2907 47.0359 75.4919 47.183 75.6589 47.3648C75.8259 47.5467 75.9554 47.7596 76.04 47.9915C76.1246 48.2234 76.1627 48.4697 76.1521 48.7164C75.8253 56.1869 72.6299 63.2435 67.2312 68.4174C61.8324 73.5912 54.6462 76.4836 47.1686 76.4924ZM20.1623 48.1905L20.0754 48.189C19.5772 48.1662 19.1085 47.9466 18.7722 47.5783C18.4359 47.2101 18.2596 46.7234 18.2819 46.2252C18.5231 40.8444 20.2597 35.6373 23.2967 31.1889C26.3337 26.7404 30.5508 23.2269 35.4744 21.0428C40.398 18.8587 45.833 18.0906 51.169 18.8248C56.505 19.559 61.5306 21.7664 65.6814 25.199C65.9674 25.4363 66.1768 25.753 66.283 26.1091C66.3892 26.4652 66.3875 26.8448 66.2782 27.2C66.1689 27.5552 65.9567 27.87 65.6686 28.1047C65.3805 28.3394 65.0293 28.4836 64.6594 28.5189C64.1634 28.5663 63.6688 28.4151 63.2841 28.0984C60.583 25.864 57.4454 24.2177 54.072 23.2645C50.6986 22.3114 47.1634 22.0724 43.6924 22.5629C40.2213 23.0533 36.8908 24.2625 33.9135 26.113C30.9363 27.9635 28.3777 30.4147 26.4015 33.31C23.7586 37.1812 22.2479 41.7129 22.0392 46.3956C22.017 46.8786 21.8096 47.3346 21.4601 47.6688C21.1106 48.0031 20.6459 48.1899 20.1623 48.1905Z" fill="#EE0000"/>
</g>
<defs>
<clipPath id="clip0_15_20">
<rect width="95" height="95" fill="white"/>
</clipPath>
</defs>
</svg>
