<svg width="97" height="97" viewBox="0 0 97 97" fill="none" xmlns="http://www.w3.org/2000/svg">
<path d="M14.2575 86.4838L6.63843 1.02454H90.3615L82.7349 86.4709L48.4492 95.9762L14.2575 86.4838Z" fill="#1572B6"/>
<path d="M48.5007 88.7111L76.2056 81.0299L82.7235 8.0116H48.5007V88.7111Z" fill="#33A9DC"/>
<path d="M48.5007 38.9735H62.3702L63.3281 28.2406H48.5007V17.7593H74.7832L74.5316 20.5715L71.955 49.4548H48.5007V38.9735Z" fill="white"/>
<path d="M48.5628 66.1942L48.5166 66.2078L36.844 63.0561L36.0976 54.6967H25.5776L27.0455 71.1541L48.5151 77.1128L48.5628 77.0991V66.1942Z" fill="#EBEBEB"/>
<path d="M61.479 49.0115L60.2165 63.0477L48.5265 66.2032V77.1081L70.0135 71.1532L70.1711 69.3822L71.9944 49.0115H61.479Z" fill="white"/>
<path d="M48.5364 17.7593V28.2406H23.2194L23.0095 25.8853L22.5321 20.5715L22.2812 17.7593H48.5364ZM48.5008 38.975V49.4563H36.9752L36.7653 47.101L36.2871 41.7872L36.0371 38.975H48.5008Z" fill="#EBEBEB"/>
</svg>
