<svg width="97" height="86" viewBox="0 0 97 86" fill="none" xmlns="http://www.w3.org/2000/svg">
<g clip-path="url(#clip0_10_37)">
<path d="M79.7533 27.8458C78.721 27.4933 77.6799 27.1667 76.6311 26.8663C76.8073 26.1496 76.9695 25.4416 77.1135 24.7461C79.4771 13.3243 77.9319 4.12265 72.6541 1.09304C67.5938 -1.81135 59.3181 1.21714 50.9602 8.45811C50.1365 9.17299 49.3311 9.9085 48.5447 10.6639C48.0183 10.1616 47.4825 9.66905 46.9378 9.18647C38.1782 1.44421 29.3982 -1.81889 24.1261 1.2194C19.0704 4.13284 17.5733 12.783 19.7012 23.6077C19.9129 24.6798 20.152 25.7463 20.4181 26.8063C19.1753 27.1578 17.9761 27.532 16.8284 27.9303C6.55849 31.4948 0 37.0806 0 42.8747C0 48.8589 7.04084 54.8611 17.7374 58.5007C18.6046 58.7945 19.479 59.0667 20.3598 59.3173C20.0738 60.459 19.8198 61.6083 19.5982 62.7641C17.5695 73.4009 19.1537 81.8467 24.1958 84.7416C29.4035 87.7313 38.1441 84.6586 46.6547 77.2525C47.3448 76.6503 48.0197 76.0311 48.6788 75.3955C49.5304 76.2135 50.4048 77.0077 51.3009 77.7771C59.5451 84.8389 67.6871 87.6905 72.7242 84.7876C77.927 81.7893 79.6181 72.7163 77.4227 61.6778C77.2497 60.813 77.0558 59.9525 76.841 59.097C77.4549 58.916 78.0573 58.7296 78.6446 58.5358C89.7648 54.8683 97 48.9388 97 42.8747C97 37.0595 90.2297 31.4359 79.7533 27.8458ZM77.3416 54.6205C76.8106 54.795 76.2675 54.9641 75.7123 55.1278C74.4846 51.259 72.8281 47.1453 70.8005 42.8947C72.7352 38.7456 74.3281 34.6843 75.5213 30.8407C76.5137 31.1267 77.4765 31.428 78.4048 31.746C87.3811 34.8224 92.8563 39.3702 92.8563 42.8747C92.8563 46.6074 86.9431 51.4532 77.3416 54.6205ZM73.3578 62.4789C74.3285 67.3598 74.4668 71.773 73.8238 75.2232C73.2464 78.3233 72.0846 80.3899 70.6478 81.2179C67.5912 82.9794 61.0539 80.6898 54.0036 74.6502C53.1702 73.9348 52.3569 73.1964 51.5646 72.4361C54.298 69.4604 57.0296 66.0012 59.6955 62.1591C64.3849 61.7449 68.8151 61.0675 72.8326 60.143C73.0309 60.9381 73.206 61.7168 73.3578 62.4789ZM33.0694 80.9135C30.0829 81.9632 27.7041 81.9934 26.2662 81.1681C23.2065 79.4115 21.9345 72.63 23.6695 63.5336C23.8758 62.4587 24.1119 61.3897 24.3777 60.3278C28.3509 61.2029 32.7489 61.8321 37.4492 62.2115C40.1334 65.971 42.9437 69.4265 45.776 72.4523C45.1741 73.0321 44.5579 73.597 43.9281 74.1466C40.1644 77.4214 36.3932 79.7449 33.0694 80.9135ZM19.0779 54.5975C14.348 52.988 10.4419 50.8965 7.76455 48.6141C5.35849 46.5633 4.1441 44.5268 4.1441 42.8747C4.1441 39.3585 9.40976 34.8737 18.1924 31.8256C19.2583 31.4559 20.3738 31.107 21.5313 30.7796C22.7454 34.71 24.3375 38.8195 26.259 42.975C24.3125 47.1921 22.6976 51.3672 21.4719 55.344C20.6679 55.1147 19.8697 54.8658 19.0779 54.5975ZM23.768 22.8152C21.9451 13.5412 23.1557 6.54536 26.2025 4.78953C29.4475 2.91941 36.6232 5.58578 44.1865 12.2712C44.6797 12.7081 45.165 13.1539 45.6419 13.6083C42.8236 16.6209 40.039 20.0508 37.3787 23.788C32.8167 24.2089 28.4498 24.8849 24.4349 25.7905C24.1875 24.8046 23.9651 23.8123 23.768 22.8152ZM65.6095 33.1009C64.6612 31.4703 63.6777 29.8602 62.6597 28.2717C65.7546 28.6613 68.72 29.1784 71.5045 29.8106C70.6687 32.4781 69.6267 35.2667 68.4002 38.1258C67.5037 36.4325 66.5732 34.7572 65.6095 33.1009ZM48.5466 16.5568C50.4578 18.6182 52.372 20.9194 54.2548 23.4165C50.4355 23.2369 46.6097 23.2361 42.7903 23.4142C44.6749 20.9402 46.6055 18.6419 48.5466 16.5568ZM31.3742 33.1288C30.4225 34.7718 29.5095 36.4367 28.6358 38.1221C27.4294 35.2731 26.3969 32.4717 25.5538 29.7665C28.3213 29.1502 31.2726 28.6462 34.3479 28.2638C33.3186 29.862 32.3271 31.4843 31.3742 33.1288ZM34.4361 57.7787C31.259 57.4257 28.2634 56.9478 25.4966 56.348C26.3529 53.5945 27.4082 50.7335 28.6408 47.8235C29.5178 49.5101 30.4347 51.176 31.3905 52.8198C32.3734 54.5096 33.3911 56.1647 34.4361 57.7787ZM48.661 69.483C46.6968 67.3738 44.7378 65.0401 42.8247 62.5302C44.6821 62.6027 46.5755 62.6396 48.5 62.6396C50.4771 62.6396 52.4315 62.5955 54.3552 62.5102C52.4664 65.0654 50.5594 67.4024 48.661 69.483ZM68.4392 47.6749C69.7358 50.617 70.8286 53.4629 71.6963 56.1693C68.884 56.8082 65.8475 57.3227 62.648 57.7048C63.6733 56.0869 64.6661 54.4488 65.6258 52.7915C66.6017 51.107 67.5397 49.401 68.4392 47.6749ZM62.0364 50.7305C60.567 53.2714 59.0151 55.764 57.3831 58.2046C54.4267 58.4131 51.4638 58.5167 48.5 58.515C45.4813 58.515 42.5451 58.4215 39.7177 58.2389C38.043 55.8041 36.4614 53.3071 34.9765 50.7531C33.4983 48.2128 32.1181 45.6175 30.838 42.9728C32.1149 40.3274 33.4913 37.7309 34.9643 35.1886L34.964 35.189C36.4363 32.646 38.0052 30.1596 39.6673 27.7353C42.5519 27.518 45.5101 27.4049 48.4996 27.4049C51.5028 27.4049 54.4651 27.5192 57.349 27.738C58.9943 30.1587 60.5532 32.6365 62.0228 35.1668C63.5006 37.7035 64.8952 40.2874 66.2044 42.9143C64.9086 45.5681 63.5184 48.1751 62.0364 50.7305ZM70.5845 4.66619C73.8325 6.53103 75.0958 14.0511 73.055 23.9128C72.9242 24.5425 72.7789 25.1825 72.6193 25.8327C68.5945 24.9079 64.2246 24.2202 59.6493 23.7929C56.9841 20.0145 54.2222 16.5795 51.4498 13.6057C52.1764 12.9084 52.9203 12.2293 53.6808 11.5688C60.8421 5.36513 67.5351 2.91564 70.5845 4.66619ZM48.5 34.2521C53.2837 34.2521 57.1618 38.1126 57.1618 42.8747C57.1618 47.6368 53.2837 51.4973 48.5 51.4973C43.7163 51.4973 39.8382 47.6368 39.8382 42.8747C39.8382 38.1126 43.7163 34.2521 48.5 34.2521Z" fill="#00D8FF"/>
</g>
<defs>
<clipPath id="clip0_10_37">
<rect width="97" height="86" fill="white"/>
</clipPath>
</defs>
</svg>
